<svg viewBox="0 0 194 194.07" xmlns="http://www.w3.org/2000/svg"><g fill="#bf9a35"><path d="m0 96.86a97 97 0 1 1 96.8 97.21 96.51 96.51 0 0 1 -96.8-97.21zm184.35.41a87.18 87.18 0 0 0 -87.35-87.69c-49.59-.01-87.12 40.34-87.45 86.83s36.45 88.08 87.45 88.1c50.65.02 87.54-41.2 87.35-87.24z"/><path d="m172.09 135-5.61 9.48c-8 .47-15.89-.56-24.1.93l12.84 12.38-7.64 6.57a28.07 28.07 0 0 1 -2.38-2.07 97.8 97.8 0 0 0 -22.89-17.94c-16.2-9.47-33.79-15.05-52.1-18.44a193.33 193.33 0 0 0 -27.41-2.92 147.9 147.9 0 0 0 -21.26.25c-1.4.14-2.84 0-4.49 0-.82-3.22-1.58-6.21-2.45-9.59 6.87-1.28 13.45-.77 19.95-1s13.07.45 19.87.75a49 49 0 0 1 6.2-19.57l-42.62-24.74c1.31-3.18 2.5-6.06 3.87-9.4 15.25 8.52 30 17.33 45 25.81l7.48-5.84-27.74-49.49 8.46-5.69 28.42 50.7 8.88-1.85v-59.64h9.8v59.57l8.83 2.25 28.44-50.65c2 1.31 3.63 2.36 5.23 3.48 1 .66 1.84 1.42 3.08 2.38l-27.5 49.28 7.19 5.82 44.56-25.63a28.35 28.35 0 0 1 3.82 9.49l-41.9 24.17c1.77 4.79 3.44 9.3 5.31 14.34 6.35-.18 13.14-.57 19.92-.49s13.61.64 20.91 1l-1.82 10c-12.49-.78-24.66-1.36-36.88-.28a220.08 220.08 0 0 0 -36.17 6.14c.92.58 1.45 1 2.05 1.29 6.86 3.31 13.7 6.65 20.61 9.85a7.43 7.43 0 0 0 4.09.8 138.38 138.38 0 0 1 27.48-2.13c3.94.06 7.86.34 12.67.63zm-44.09-25.55c.11-13.63-16.12-26.45-32.8-25.93-19.63.61-31.51 19.3-30.1 31a18.09 18.09 0 0 0 2.08.7c5.92 1.15 11.88 2.12 17.75 3.48a10.6 10.6 0 0 0 5.73-.21c7-2.06 14.08-4.15 21.2-5.9 5.35-1.31 10.8-2.11 16.14-3.14z"/><path d="m129.66 174.69-9.82 3.38c-25.84-20.35-55.47-27.87-87.78-27.41l-7.12-10c7.42 0 14.13-.32 20.79.07a160.28 160.28 0 0 1 29.92 4.55 132.81 132.81 0 0 1 47 22.19c1.37 1 2.59 2.23 3.89 3.34 1.1.93 2.22 1.85 3.33 2.77z"/></g></svg>