<svg viewBox="0 0 1324.44 1130.05" xmlns="http://www.w3.org/2000/svg"><g fill="#D2A427" opacity="1"><path d="m763.16 872.2v96.06c-7.34 2.34-54.43 2.79-65.48.79v-23.34h38.2c.94-.93 1.19-1.15 1.39-1.39a2.13 2.13 0 0 0 .53-.77 15.07 15.07 0 0 0 .32-1.9 7.87 7.87 0 0 0 0-1c0-1.61 0-3.23 0-4.84q0-92.52 0-185a12.27 12.27 0 0 1 .21-1.91c.05-.32.18-.62.49-1.68h23.45c1.28 10.63.41 21.51.56 32.33.17 11.3 0 22.61 0 33.91v33.66h60.63v39.67h37.5q-17-46.51 15.07-69.48a52.78 52.78 0 0 1 63 1.31c19.97 15.65 24.68 39.31 13.1 68.38 7.52.56 14.73.19 21.91.26s14.09 0 21.76 0c1.33-11.56.51-22.45.65-33.3s0-21.9 0-33.06c4.27-2.23 8.51-1.06 12.56-1.25 3.8-.18 7.63 0 12.53 0v67.35c7.27.1 13.91.23 20.55.28s13.49 0 21.29 0c.67-22.65 0-44.75.44-67.22h24.43v66.55h23.75c.09-7.1.22-14.39.26-21.69s0-14.86 0-22.28v-22.52h24.79v66.63h23.73v-66.39h24.86c.1 6.81.24 14.07.29 21.33v22.29 22.7h36.62c-1.31-3.09-2.53-5.67-3.51-8.35-10.65-29.07 4.59-61.94 37.51-69.84 31.11-7.46 61.68 16.75 63.37 48.59 1.31 24.6-16.33 54.1-53.51 55-2.25.05-4.52 0-6.78 0h-459.23c-2.82-6.67-1.2-13.15-1.48-19.44s-.07-12.87-.07-20.29c-12.02-.63-23.43-.41-35.69-.15zm477.09-12.73c-.07 14.71 12.91 27.74 27.71 27.8 14.53.05 28.28-13.4 27.51-28-.82-15.41-11.17-26.43-27.17-27.23-14.65-.69-27.97 12.76-28.05 27.43zm-306.25.42c0-15.44-12.2-28-27.25-28s-27.41 12.67-27.28 27.92a27.72 27.72 0 0 0 26.76 27.42c14.83.38 27.77-12.39 27.77-27.34z"/><path d="m1078.29 801.1-4.62-7.74 15.68-14.81h-25.13v-8.81h83.21a8.71 8.71 0 0 1 1 2.57 51.76 51.76 0 0 1 -.43 5.74c-6.54.12-12.87.43-19.18.32-13.93-.24-26.85 2.73-38 11.55-3.93 3.17-7.59 6.76-12.53 11.18z"/><path d="m1305.54 800.29-5.44-5.15c.36-1.8.72-3.59 1.08-5.35a54.81 54.81 0 0 1 -5.89-5c-6.2-6.9-5.11-18.29 2.14-24.09a16.9 16.9 0 0 1 24 3.32c4.41 6.13 3.92 15.4-1.49 21.39-4.5 5.04-9.38 9.74-14.4 14.88zm2.35-34.59c-6.89 3.63-8.67 5.95-7.42 9.91 1 3.29 3.21 5.48 6.93 5.63a8.18 8.18 0 0 0 8-5.6c1.05-3.76-.93-6.46-7.51-9.94z"/><path d="m1195 774.21a16.67 16.67 0 0 1 -16.9 16.33 16.34 16.34 0 0 1 -16.51-17.54c.58-9.6 7.5-15.89 17.2-15.64a16.29 16.29 0 0 1 16.21 16.85zm-17.12-8.51c-6.55 3.79-8.31 6.43-7.07 10.2a8.08 8.08 0 0 0 8.21 5.34c3.66-.34 5.79-2.59 6.68-5.94 1.04-4-.76-6.18-7.84-9.6z"/><path d="m1209.35 777.85v-7.94h57.76v7.94z"/><path d="m923.18 788.29c-10.65-2.95-14.39-7.42-13.11-15.62a13.08 13.08 0 0 1 25.78-.49c1.43 8.23-2.13 12.75-12.67 16.11z"/><path d="m1026.1 788.39c-10.53-2.93-14.65-7.5-13.75-14.84a13.36 13.36 0 0 1 13-12 13.84 13.84 0 0 1 13.15 10.76c1.41 7.42-2.08 12.09-12.4 16.08z"/><path d="m890.3 788.37c-10.6-3.52-13.92-7.79-12.58-16.16a13 13 0 0 1 13-10.68 12.46 12.46 0 0 1 12.5 11.11c1 8.82-3.35 14.95-12.92 15.73z"/><path d="m992.82 788.45c-11.07-4.13-14.2-8.63-12.35-17a13 13 0 0 1 12.63-10 12.71 12.71 0 0 1 12.71 10.95c1.29 8.49-1.91 12.49-12.99 16.05z"/><path d="m811.34 957.44c-7.89 0-13.32-5.64-13-13.48.27-7.45 5.5-12.38 13.13-12.37s13 5.14 13.17 12.44a12.9 12.9 0 0 1 -13.3 13.41z"/><path d="m828.79 763.43 4.46 7.91-44.49 23.34-4.48-7.8z"/><path d="m41.15 806.88h85.11c.89 26.07-.12 52.06.56 77.93 7.48 2 312.47 2.82 335.77 1 1.94-6.73 2.5-34.6 1-53.3a39.59 39.59 0 0 0 -6.19-.93c-79.1-.05-158.2.17-237.29-.19-20-.09-36 12.82-38.15 34.18-7.65 1.67-15.53.64-24.08.66-.79-13.06 3.39-24.06 10.26-33.85 11.44-16.3 27.48-25.46 47.49-25.52 89.43-.26 178.86-.13 268.29-.12 1.25 0 2.51.23 4.87.45.4 26.06-.09 52 .27 78.55h35.72c-1.78-6.31-4.09-12.33-5.16-18.56-6-35 23.29-62.41 54.56-60.44 25.9 1.63 46.91 22.94 48.66 48.83 1.81 26.74-17.35 54.09-51.65 55.81-2.25.11-4.52 0-6.78 0h-462.41v-78c-7.22-2.24-23-2.61-36-.85-.14 22.62 0 45.42-.07 68.22v68.19h-64.93c-1.79-7.66-.78-15.53-.53-24.34h40.67v-69.37c.01-22.75 0-45.49.01-68.35zm529.9 24.75c-15-.13-27.82 12.45-27.82 27.39 0 14.48 12.36 27 26.95 27.26 15.2.29 28.34-11.82 28.21-26.92-.15-17.01-13.17-27.76-27.34-27.73z"/><path d="m402.15 748.57 6.09 6.33-17.17 15.6h84.93c.2 3.35.34 5.74.52 8.74h-306.35v-8.4c3.86-.12 7.3-.34 10.75-.34 57.09 0 114.18-.1 171.27.06 12.23 0 23.82-1.77 34-8.87 5.2-3.69 9.89-8.09 15.96-13.12z"/><path d="m625.48 767.4-44.66 23.49-4.19-7.89 44.07-23.21z"/><path d="m329.45 332.28c-.14-182.91 146.89-332.67 333.29-332.28 187.96.39 332.64 152.07 332.26 333.53-.39 181.69-145.44 332.67-333.48 332.28-188.44-.4-332.96-152.25-332.07-333.53zm632.43 1.41c1.42-161.8-129.51-300.81-299.6-300.83s-298.94 138.39-300.07 297.9c-1.14 159.24 125.19 302.17 299.79 302.24 174 .06 300.53-141.35 299.88-299.31z"/><path d="m919.84 463c-7.33 12.38-13.25 22.37-19.25 32.52-27.41 1.62-54.53-1.9-82.68 3.19l44.09 42.44-26.23 22.56c-3-2.56-5.81-4.59-8.14-7.12-22.9-24.77-49.58-44.59-78.63-61.59-55.57-32.47-115.91-51.62-178.73-63.24a660.08 660.08 0 0 0 -94-10c-24.38-1-48.63-1.67-72.92.84-4.84.5-9.76.07-15.41.07l-8.42-32.88c23.56-4.41 46.15-2.64 68.43-3.5s44.84 1.56 68.19 2.58c2.84-23.35 8.59-45.82 21.27-67.14l-146.31-84.73c4.49-10.91 8.57-20.8 13.28-32.25 52.3 29.24 102.8 59.46 154.25 88.55l25.64-20.05-94.92-169.76 29-19.51c32.58 58.15 64.67 115.4 97.47 173.93l30.46-6.35v-204.56h33.62v204.4l30.39 7.7 97.59-173.8c6.8 4.49 12.46 8.1 18 11.91 3.28 2.27 6.32 4.88 10.57 8.19l-94.45 169 24.65 20 153-87.89c6 10.18 10.86 20.39 13.12 32.56l-143.84 82.93 18.23 49.2c21.8-.6 45.08-2 68.35-1.68s46.7 2.2 71.73 3.49l-6.24 34.12c-42.86-2.69-84.62-4.68-126.51-1-41.39 3.68-82.15 10.13-124.09 21.05a81.32 81.32 0 0 0 7 4.43c23.53 11.36 47 22.81 70.7 33.81 4.24 2 9.63 3.49 14 2.71a476.56 476.56 0 0 1 94.25-7.3c13.53.34 26.98 1.31 43.49 2.17zm-151.18-87.5c.39-46.76-55.29-90.76-112.52-89-67.34 2.1-108.1 66.22-103.25 106.34a53.48 53.48 0 0 0 7.15 2.4c20.3 4 40.75 7.27 60.88 12a36.56 36.56 0 0 0 19.65-.73c24.16-7.06 48.3-14.24 72.72-20.24 18.26-4.5 36.95-7.27 55.37-10.77z"/><path d="m774.28 599.3-33.7 11.62c-88.83-69.84-190.31-95.64-301.14-94.06l-24.44-34.21c25.44 0 48.46-1.09 71.33.26a547.77 547.77 0 0 1 102.67 15.62c58.69 14.92 112.63 40 161.28 76.12 4.69 3.49 8.88 7.64 13.34 11.44 3.78 3.21 7.61 6.35 11.42 9.53-.27 1.22-.52 2.45-.76 3.68z"/><path d="m245.72 1046.56v-5.86a1.2 1.2 0 0 1 1.36-1.36h8.72a1.2 1.2 0 0 1 1.36 1.36v46.17c0 2.72.52 4.61 1.57 5.65s2.7 1.57 5 1.57h6q5.44 0 5.45 5.45 0 3.4-1.29 4.29a7.57 7.57 0 0 1 -4.16.88h-8c-4.45 0-7.93-.83-10.42-2.52s-4.16-4.46-5-8.37a17.91 17.91 0 0 1 -6.54 3.68 27.22 27.22 0 0 1 -8.31 1.22 31.41 31.41 0 0 1 -9.87-1.5 20.61 20.61 0 0 1 -13.15-12.32 29.51 29.51 0 0 1 -1.9-11.1 33.18 33.18 0 0 1 2.17-12.81 23.26 23.26 0 0 1 5.72-8.37 21.28 21.28 0 0 1 8.25-4.63 33 33 0 0 1 9.73-1.43zm-14.16 41.54q7.75 0 11-4.57t3.2-12.73v-13.62h-13.39a15 15 0 0 0 -10.42 3.61q-4 3.62-4 13 0 7.08 3.54 10.69t10.07 3.62zm-11.85-58a1.21 1.21 0 0 1 -1.37-1.36v-10a1.21 1.21 0 0 1 1.37-1.36h9.29a1.2 1.2 0 0 1 1.36 1.36v10a1.21 1.21 0 0 1 -1.36 1.36zm16.61 0a1.2 1.2 0 0 1 -1.36-1.36v-10a1.2 1.2 0 0 1 1.36-1.36h9.26a1.21 1.21 0 0 1 1.37 1.36v10a1.21 1.21 0 0 1 -1.37 1.36z"/><path d="m310.82 1105.67a32.22 32.22 0 0 1 -11.3-1.84 20.11 20.11 0 0 1 -8.31-5.79 12.36 12.36 0 0 1 -7.35 5.52 33.58 33.58 0 0 1 -8.31 1.15h-5.86q-5.44 0-5.44-5.44 0-3.4 1.29-4.29a7.52 7.52 0 0 1 4.15-.89h6.81a7.85 7.85 0 0 0 3-.61 7.23 7.23 0 0 0 2.72-2 10.8 10.8 0 0 0 2-3.82 19.93 19.93 0 0 0 .75-5.92c-.09-.91-.14-1.79-.14-2.66v-2.79q0-15.66 6.95-22.68t19.06-7q12.14 0 19.07 7t6.95 22.68a42.68 42.68 0 0 1 -1.84 13.34 24 24 0 0 1 -5.17 9.13 20.28 20.28 0 0 1 -8.18 5.25 32.56 32.56 0 0 1 -10.85 1.66zm0-48.49q-7.62 0-11.1 5t-3.47 14q0 9.81 3.47 14.3t11.1 4.5q7.64 0 11.11-4.5t3.47-14.3q0-9-3.47-14t-11.11-5z"/><path d="m365.3 1103.35a1.2 1.2 0 0 1 -1.36 1.36h-8.71a1.21 1.21 0 0 1 -1.37-1.36v-89.89a1.21 1.21 0 0 1 1.37-1.36h8.71a1.2 1.2 0 0 1 1.36 1.36z"/><path d="m433.82 1084.83a7.89 7.89 0 0 0 3.33 7q3.35 2.31 8.92 2.31h1.5a6.22 6.22 0 0 1 4.09 1.16 4.88 4.88 0 0 1 1.36 3.88c0 2.36-.44 3.88-1.29 4.56a6.72 6.72 0 0 1 -4.16 1h-2.86a17.23 17.23 0 0 1 -8.31-2 10.91 10.91 0 0 1 -5.18-5.93 12.6 12.6 0 0 1 -6.39 6.2 27.92 27.92 0 0 1 -10.63 1.7h-30.2a1.2 1.2 0 0 1 -1.36-1.36v-7.9a1.2 1.2 0 0 1 1.36-1.36h26a24.77 24.77 0 0 0 6.13-.61 6.85 6.85 0 0 0 3.54-2 7.69 7.69 0 0 0 1.63-3.75 33.89 33.89 0 0 0 .41-5.86v-10.89q0-13.76-15.52-13.76h-15.8a1.2 1.2 0 0 1 -1.37-1.36v-7.9a1.2 1.2 0 0 1 1.37-1.36h20q10.35 0 16.89 5.85t6.54 18.39z"/><path d="m448.52 1104.71a7.14 7.14 0 0 1 -4.09-1c-.9-.63-1.35-1.91-1.35-3.81 0-2.27.42-3.82 1.29-4.63a5.87 5.87 0 0 1 4.15-1.23h9.26q3.41 0 5-1.57c1.05-1 1.57-2.93 1.57-5.65v-36.5a1.2 1.2 0 0 1 1.36-1.36h8.72a1.2 1.2 0 0 1 1.36 1.36v34.46a7.89 7.89 0 0 0 3.34 7c2.22 1.54 5.2 2.31 8.92 2.31h1.63a6.2 6.2 0 0 1 4.09 1.16 4.84 4.84 0 0 1 1.36 3.88q0 3.54-1.29 4.56a6.7 6.7 0 0 1 -4.16 1h-3a15.66 15.66 0 0 1 -7.63-1.77 11.9 11.9 0 0 1 -5-5.31q-3.4 7.08-14.16 7.08zm8.31-69.19a1.2 1.2 0 0 1 -1.36-1.36v-9.94a1.2 1.2 0 0 1 1.36-1.36h9.26a1.2 1.2 0 0 1 1.36 1.36v9.94a1.2 1.2 0 0 1 -1.36 1.36zm16.62 0a1.21 1.21 0 0 1 -1.37-1.36v-9.94a1.21 1.21 0 0 1 1.37-1.36h9.26a1.2 1.2 0 0 1 1.36 1.36v9.94a1.2 1.2 0 0 1 -1.36 1.36z"/><path d="m531.19 1104.71a15.65 15.65 0 0 1 -7.62-1.77 11.9 11.9 0 0 1 -5-5.31q-3.4 7.08-14.17 7.08h-14.75a7.11 7.11 0 0 1 -4.08-1c-.91-.63-1.36-1.91-1.36-3.81 0-2.27.43-3.82 1.29-4.63a5.88 5.88 0 0 1 4.15-1.23h12.67q3.4 0 5-1.57c1-1 1.57-2.93 1.57-5.65v-24.79a1.2 1.2 0 0 1 1.36-1.36h8.72a1.21 1.21 0 0 1 1.36 1.36v22.75a8 8 0 0 0 3.27 7 14.8 14.8 0 0 0 8.71 2.31h3.41q3.4 0 5-1.57c1-1 1.57-2.93 1.57-5.65v-24.79a1.2 1.2 0 0 1 1.36-1.36h8.71a1.21 1.21 0 0 1 1.37 1.36v23.29a7.24 7.24 0 0 0 3.4 6.54 16.22 16.22 0 0 0 8.86 2.18h3.13q3.41 0 5-1.57c1-1 1.57-2.93 1.57-5.65v-36.5a1.2 1.2 0 0 1 1.31-1.37h8.71a1.21 1.21 0 0 1 1.37 1.36v34.46a7.89 7.89 0 0 0 3.34 7q3.33 2.31 8.92 2.31h1.49a6.2 6.2 0 0 1 4.09 1.16 4.84 4.84 0 0 1 1.36 3.88q0 3.54-1.29 4.56a6.7 6.7 0 0 1 -4.16 1h-2.86a15.65 15.65 0 0 1 -7.62-1.77 11.9 11.9 0 0 1 -5-5.31q-3.42 7.08-14.17 7.08h-6.54a15.65 15.65 0 0 1 -7.62-1.77 11.9 11.9 0 0 1 -5-5.31q-3.4 7.08-14.17 7.08z"/><path d="m641.93 1105.67a32.24 32.24 0 0 1 -11.31-1.84 20.11 20.11 0 0 1 -8.31-5.79 12.31 12.31 0 0 1 -7.35 5.52 33.58 33.58 0 0 1 -8.31 1.15h-5.86q-5.44 0-5.44-5.44 0-3.4 1.29-4.29a7.52 7.52 0 0 1 4.15-.89h6.81a7.85 7.85 0 0 0 3-.61 7.15 7.15 0 0 0 2.72-2 10.8 10.8 0 0 0 2-3.82 19.93 19.93 0 0 0 .75-5.92c-.09-.91-.14-1.79-.14-2.66v-2.79q0-15.66 7-22.68t19.07-7q12.12 0 19.06 7t7 22.68c0 1 0 2-.07 3s-.11 2-.2 2.86q.14 6.93 2.79 9.46a8.14 8.14 0 0 0 5.65 2.52h3.95a6.2 6.2 0 0 1 4.09 1.16 4.84 4.84 0 0 1 1.36 3.88q0 3.54-1.29 4.56a6.7 6.7 0 0 1 -4.16 1h-3c-1.27 0-2.64-.06-4.09-.2a19.94 19.94 0 0 1 -4.29-.88 16 16 0 0 1 -4-2 11.48 11.48 0 0 1 -3.27-3.47 19.62 19.62 0 0 1 -8.3 5.72 33.06 33.06 0 0 1 -11.3 1.77zm0-48.49q-7.63 0-11.11 5t-3.47 14q0 9.81 3.47 14.3t11.11 4.5q7.62 0 11.1-4.5t3.47-14.3q0-9-3.47-14t-11.1-5z"/><path d="m679.92 1104.71a7.11 7.11 0 0 1 -4.08-1c-.91-.63-1.36-1.91-1.36-3.81 0-2.27.43-3.82 1.29-4.63a5.88 5.88 0 0 1 4.15-1.23h8.58q3.4 0 5-1.57c1-1 1.56-2.93 1.56-5.65v-73.41a1.2 1.2 0 0 1 1.37-1.36h8.71a1.2 1.2 0 0 1 1.36 1.36v74.09q0 8.87-3.67 13t-12.26 4.15z"/><path d="m737 1103.35a1.2 1.2 0 0 1 -1.36 1.36h-8.71a1.21 1.21 0 0 1 -1.37-1.36v-89.89a1.21 1.21 0 0 1 1.37-1.36h8.71a1.2 1.2 0 0 1 1.36 1.36z"/><path d="m823.48 1046.56v-5.86a1.21 1.21 0 0 1 1.37-1.36h8.71a1.2 1.2 0 0 1 1.36 1.36v46.17c0 2.72.52 4.61 1.57 5.65s2.7 1.57 5 1.57h6q5.44 0 5.45 5.45 0 3.4-1.29 4.29a7.57 7.57 0 0 1 -4.16.88h-8c-4.44 0-7.92-.83-10.42-2.52s-4.14-4.46-5-8.37a17.91 17.91 0 0 1 -6.54 3.68 27.27 27.27 0 0 1 -8.31 1.22 31.52 31.52 0 0 1 -9.88-1.5 20.62 20.62 0 0 1 -13.14-12.32 29.5 29.5 0 0 1 -1.91-11.1 33.17 33.17 0 0 1 2.18-12.81 23.26 23.26 0 0 1 5.72-8.37 21.39 21.39 0 0 1 8.24-4.63 33.14 33.14 0 0 1 9.74-1.43zm-14.17 41.54q7.77 0 11-4.57t3.2-12.73v-13.62h-13.38a15 15 0 0 0 -10.42 3.61c-2.67 2.41-4 6.74-4 13q0 7.08 3.55 10.69t10.05 3.62zm-11.85-58a1.2 1.2 0 0 1 -1.36-1.36v-10a1.2 1.2 0 0 1 1.36-1.36h9.27a1.2 1.2 0 0 1 1.36 1.36v10a1.21 1.21 0 0 1 -1.36 1.36zm16.62 0a1.21 1.21 0 0 1 -1.36-1.36v-10a1.2 1.2 0 0 1 1.36-1.36h9.26a1.21 1.21 0 0 1 1.37 1.36v10a1.21 1.21 0 0 1 -1.37 1.36z"/><path d="m848.41 1104.71a7.18 7.18 0 0 1 -4.1-1c-.9-.63-1.35-1.91-1.35-3.81 0-2.27.43-3.82 1.29-4.63a5.91 5.91 0 0 1 4.16-1.23h9.25c2.28 0 3.93-.52 5-1.57s1.56-2.93 1.56-5.65v-36.5a1.21 1.21 0 0 1 1.37-1.36h8.71a1.2 1.2 0 0 1 1.36 1.36v34.46a7.92 7.92 0 0 0 3.34 7q3.35 2.31 8.92 2.31h1.64a6.17 6.17 0 0 1 4.08 1.16 4.85 4.85 0 0 1 1.37 3.88c0 2.36-.43 3.88-1.3 4.56a6.64 6.64 0 0 1 -4.15 1h-3a15.6 15.6 0 0 1 -7.62-1.77 11.87 11.87 0 0 1 -5-5.31q-3.4 7.08-14.16 7.08zm6.94 25.34a1.2 1.2 0 0 1 -1.36-1.36v-10a1.2 1.2 0 0 1 1.36-1.36h9.26a1.21 1.21 0 0 1 1.37 1.36v10a1.21 1.21 0 0 1 -1.37 1.36zm16.62 0a1.2 1.2 0 0 1 -1.36-1.36v-10a1.2 1.2 0 0 1 1.36-1.36h9.26a1.2 1.2 0 0 1 1.36 1.36v10a1.21 1.21 0 0 1 -1.36 1.36z"/><path d="m930.67 1105.67a32.14 32.14 0 0 1 -11.3-1.84 20.2 20.2 0 0 1 -8.32-5.79 12.32 12.32 0 0 1 -7.34 5.52 33.65 33.65 0 0 1 -8.32 1.15h-5.85q-5.44 0-5.45-5.44 0-3.4 1.29-4.29a7.56 7.56 0 0 1 4.16-.89h6.81a7.8 7.8 0 0 0 3-.61 7.26 7.26 0 0 0 2.73-2 10.8 10.8 0 0 0 2-3.82 19.93 19.93 0 0 0 .75-5.92c-.09-.91-.14-1.79-.14-2.66v-2.79q0-15.66 7-22.68t19.07-7q12.12 0 19.07 7t7 22.68c0 1 0 2-.08 3s-.11 2-.2 2.86q.14 6.93 2.8 9.46a8.11 8.11 0 0 0 5.64 2.52h4a6.19 6.19 0 0 1 4.08 1.16 4.85 4.85 0 0 1 1.37 3.88c0 2.36-.44 3.88-1.3 4.56a6.66 6.66 0 0 1 -4.15 1h-3c-1.27 0-2.63-.06-4.09-.2a19.94 19.94 0 0 1 -4.29-.88 16 16 0 0 1 -4-2 11.58 11.58 0 0 1 -3.26-3.47 19.65 19.65 0 0 1 -8.31 5.72 33.06 33.06 0 0 1 -11.37 1.77zm0-48.49q-7.63 0-11.1 5t-3.47 14q0 9.81 3.47 14.3t11.1 4.5q7.62 0 11.1-4.5c2.31-3 3.48-7.76 3.48-14.3 0-6-1.17-10.67-3.48-14s-6.02-5-11.1-5z"/><path d="m969.62 1104.71a7.12 7.12 0 0 1 -4.09-1c-.9-.63-1.35-1.91-1.35-3.81 0-2.27.42-3.82 1.29-4.63a5.87 5.87 0 0 1 4.15-1.23h8.58q3.4 0 5-1.57c1.05-1 1.57-2.93 1.57-5.65v-36.5a1.2 1.2 0 0 1 1.36-1.36h8.72a1.21 1.21 0 0 1 1.36 1.36v34.46a7.91 7.91 0 0 0 3.33 7q3.35 2.31 8.92 2.31h1.64a6.15 6.15 0 0 1 4.08 1.16 4.85 4.85 0 0 1 1.37 3.88q0 3.54-1.29 4.56a6.7 6.7 0 0 1 -4.16 1h-3a15.64 15.64 0 0 1 -7.63-1.77 11.9 11.9 0 0 1 -5-5.31q-3.4 7.08-14.17 7.08zm16.21-69.19a1.21 1.21 0 0 1 -1.37-1.36v-9.94a1.21 1.21 0 0 1 1.37-1.36h9.26a1.2 1.2 0 0 1 1.36 1.36v9.94a1.2 1.2 0 0 1 -1.36 1.36z"/><path d="m1009.94 1104.71a7.12 7.12 0 0 1 -4.09-1c-.9-.63-1.36-1.91-1.36-3.81 0-2.27.43-3.82 1.29-4.63a5.91 5.91 0 0 1 4.16-1.23h9.26c2.27 0 3.92-.52 5-1.57s1.56-2.93 1.56-5.65v-36.5a1.21 1.21 0 0 1 1.37-1.36h8.72a1.2 1.2 0 0 1 1.36 1.36v34.46a7.91 7.91 0 0 0 3.33 7q3.35 2.31 8.92 2.31h1.64a6.2 6.2 0 0 1 4.09 1.16 4.88 4.88 0 0 1 1.36 3.88c0 2.36-.43 3.88-1.3 4.56a6.64 6.64 0 0 1 -4.15 1h-3a15.64 15.64 0 0 1 -7.63-1.77 11.85 11.85 0 0 1 -5-5.31q-3.42 7.08-14.17 7.08zm8.31-69.19a1.2 1.2 0 0 1 -1.36-1.36v-9.94a1.2 1.2 0 0 1 1.36-1.36h9.26a1.2 1.2 0 0 1 1.36 1.36v9.94a1.2 1.2 0 0 1 -1.36 1.36zm16.61 0a1.2 1.2 0 0 1 -1.36-1.36v-9.94a1.2 1.2 0 0 1 1.36-1.36h9.26a1.21 1.21 0 0 1 1.37 1.36v9.94a1.21 1.21 0 0 1 -1.37 1.36z"/><path d="m1051.06 1104.71a7.11 7.11 0 0 1 -4.08-1c-.91-.63-1.36-1.91-1.36-3.81 0-2.27.43-3.82 1.29-4.63a5.88 5.88 0 0 1 4.15-1.23h8.59q3.4 0 5-1.57c1-1 1.57-2.93 1.57-5.65v-73.41a1.2 1.2 0 0 1 1.36-1.36h8.71a1.21 1.21 0 0 1 1.37 1.36v71.37a7.89 7.89 0 0 0 3.33 7c2.22 1.54 5.2 2.31 8.92 2.31h1.64a6.19 6.19 0 0 1 4.08 1.16 4.85 4.85 0 0 1 1.37 3.88c0 2.36-.44 3.88-1.3 4.56a6.66 6.66 0 0 1 -4.15 1h-3a15.69 15.69 0 0 1 -7.63-1.77 12 12 0 0 1 -5-5.31q-3.39 7.08-14.16 7.08z"/><path d="m1091.39 1104.71a7.18 7.18 0 0 1 -4.1-1c-.9-.63-1.36-1.91-1.36-3.81 0-2.27.44-3.82 1.3-4.63a5.91 5.91 0 0 1 4.16-1.23h8.61q3.4 0 5-1.57c1-1 1.56-2.93 1.56-5.65v-73.41a1.2 1.2 0 0 1 1.37-1.36h8.71a1.2 1.2 0 0 1 1.36 1.36v74.09q0 8.87-3.67 13t-12.26 4.15z"/><path d="m.5 1066.6h151.63a0 0 0 0 1 0 0v8.95a0 0 0 0 1 0 0h-151.63a.5.5 0 0 1 -.5-.5v-7.95a.5.5 0 0 1 .5-.5z"/><path d="m1172.81 1066.6h151.63a0 0 0 0 1 0 0v8.95a0 0 0 0 1 0 0h-151.63a.5.5 0 0 1 -.5-.5v-7.95a.5.5 0 0 1 .5-.5z" transform="matrix(-1 0 0 -1 2496.75 2142.15)"/></g></svg>