<svg viewBox="0 0 500 500" xmlns="http://www.w3.org/2000/svg"><path d="m416.78 398.49h33.12v.25h-33.12z" fill="#ebebeb"/><path d="m322.53 401.21h8.69v.25h-8.69z" fill="#ebebeb"/><path d="m396.59 389.21h19.19v.25h-19.19z" fill="#ebebeb"/><path d="m52.46 390.89h43.19v.25h-43.19z" fill="#ebebeb"/><path d="m104.56 390.89h6.33v.25h-6.33z" fill="#ebebeb"/><path d="m131.47 395.11h93.68v.25h-93.68z" fill="#ebebeb"/><path d="m237 337.8h-193.08a5.71 5.71 0 0 1 -5.71-5.71v-271.43a5.71 5.71 0 0 1 5.71-5.66h193.08a5.71 5.71 0 0 1 5.71 5.71v271.38a5.71 5.71 0 0 1 -5.71 5.71zm-193.08-282.6a5.47 5.47 0 0 0 -5.46 5.46v271.43a5.47 5.47 0 0 0 5.46 5.46h193.08a5.47 5.47 0 0 0 5.46-5.46v-271.43a5.47 5.47 0 0 0 -5.46-5.46z" fill="#ebebeb"/><path d="m453.31 337.8h-193.1a5.72 5.72 0 0 1 -5.71-5.71v-271.43a5.72 5.72 0 0 1 5.71-5.66h193.1a5.71 5.71 0 0 1 5.69 5.66v271.43a5.71 5.71 0 0 1 -5.69 5.71zm-193.1-282.6a5.47 5.47 0 0 0 -5.46 5.46v271.43a5.47 5.47 0 0 0 5.46 5.46h193.1a5.47 5.47 0 0 0 5.46-5.46v-271.43a5.47 5.47 0 0 0 -5.46-5.46z" fill="#ebebeb"/><path d="m0 382.4h500v.25h-500z" fill="#ebebeb"/><path d="m150.8 214.92-59.3 14.08a1.9 1.9 0 0 1 -2.29-1.42l-18.83-79.28a1.91 1.91 0 0 1 1.41-2.3l36.53-8.67 30.52 19 13.38 56.32a1.9 1.9 0 0 1 -1.42 2.27z" fill="#f0f0f0"/><path d="m138.84 156.31-30.52-18.98-1.94.46 7.19 30.27 26.56-6.31z" fill="#e6e6e6"/><path d="m138.79 156.1-24.62 5.85-5.85-24.62z" fill="none"/><path d="m138.79 156.1-24.62 5.85-5.85-24.62z" fill="#fafafa"/><path d="m89.65 170.37h45.08v28.57h-45.08z" fill="#e6e6e6" transform="matrix(.97293743 -.23106872 .23106872 .97293743 -39.63 30.92)"/><path d="m103.59 191.29-7.28 11.82 19.1-4.54z" fill="#fafafa"/><path d="m111.11 199.59 26.31-6.25-.6-2.53-14.71-9.06z" fill="#fafafa"/><path d="m111.54 180.56a4.82 4.82 0 1 1 -5.79-3.57 4.81 4.81 0 0 1 5.79 3.57z" fill="#fafafa"/><path d="m406.11 148.66-43.26-20.15a1.49 1.49 0 0 1 -.72-2l26.94-57.85a1.5 1.5 0 0 1 2-.72l26.63 12.43 9.53 26.48-19.14 41.09a1.49 1.49 0 0 1 -1.98.72z" fill="#ebebeb"/><path d="m427.23 106.85-9.53-26.48-1.41-.65-10.29 22.08 19.38 9.02z" fill="#e0e0e0"/><path d="m427.3 106.7-17.97-8.36 8.37-17.97z" fill="none"/><path d="m427.3 106.7-17.97-8.36 8.37-17.97z" fill="#f5f5f5"/><path d="m408.07 132.26-32-14.91c-2.16-1-4.05 2.2-1.88 3.21l32 14.9c2.16 1 4.05-2.19 1.88-3.2z" fill="#fafafa"/><path d="m383.65 100.28 32 14.91c2.15 1 4-2.2 1.87-3.21l-32-14.9c-2.15-1-4 2.19-1.87 3.2z" fill="#fafafa"/><path d="m378.7 110.69 32 14.91c2.15 1 4-2.2 1.87-3.21l-32-14.9c-2.15-1-4 2.19-1.87 3.2z" fill="#fafafa"/><path d="m303 329.36-1-3.27a3.12 3.12 0 0 0 -2.34-2.14l-24.12-5.15a3.11 3.11 0 0 0 -3.69 2.4l-9.85 46.11a3.25 3.25 0 0 0 2.49 3.84l54.82 11.69a3.24 3.24 0 0 0 3.84-2.49l8.58-40.24a3.11 3.11 0 0 0 -2.4-3.7l-24.33-5.19a2.72 2.72 0 0 1 -2-1.86z" fill="#e0e0e0"/><path d="m329.35 336.41-24.12-5.14a3.11 3.11 0 0 0 -3 1l-2.23 2.59a2.71 2.71 0 0 1 -2.6.87l-24.34-5.19a3.12 3.12 0 0 0 -3.7 2.39l-7.36 34.38a3.25 3.25 0 0 0 2.49 3.84l54.82 11.69a3.24 3.24 0 0 0 3.84-2.49l8.58-40.24a3.11 3.11 0 0 0 -2.38-3.7z" fill="#f0f0f0"/><rect fill="#40ff7d" height="201.57" rx="11.89" width="257.62" x="118.78" y="113.46"/><g fill="#fff"><rect height="201.57" opacity=".4" rx="11.89" width="257.62" x="118.78" y="113.46"/><rect height="183.92" opacity=".8" rx="7.89" width="249.62" x="122.78" y="127.11"/><rect height="6.58" opacity=".3" rx="1.89" width="6.58" x="132.46" y="116.67"/><rect height="6.58" opacity=".5" rx="1.89" width="6.58" x="143.13" y="116.67"/><rect height="6.58" opacity=".7" rx="1.89" width="6.58" x="153.81" y="116.67"/><path d="m235.54 123.14v-4.14l-2.07 3.46h-.52l-2.07-3.4v4.12h-1.12v-6.3h1l2.5 4.17 2.46-4.17h1v6.3z"/><path d="m242.74 118.33-2.25 5.19a2.44 2.44 0 0 1 -.76 1.11 1.87 1.87 0 0 1 -1.09.32 2.16 2.16 0 0 1 -.71-.12 1.69 1.69 0 0 1 -.58-.32l.45-.83a1.23 1.23 0 0 0 .38.24 1.2 1.2 0 0 0 .45.09.77.77 0 0 0 .49-.15 1.47 1.47 0 0 0 .35-.52l.08-.18-2.09-4.83h1.17l1.51 3.56 1.52-3.56z"/><path d="m247.2 117.82v1.92h3.05v1h-3.05v2.41h-1.2v-6.3h4.6v1z"/><path d="m251.62 117.35a.63.63 0 0 1 -.2-.49.62.62 0 0 1 .2-.48.73.73 0 0 1 .52-.19.76.76 0 0 1 .51.18.61.61 0 0 1 .21.47.67.67 0 0 1 -.21.5.69.69 0 0 1 -.51.2.77.77 0 0 1 -.52-.19zm-.05 1h1.12v4.81h-1.12z"/><path d="m254.17 116.46h1.12v6.68h-1.12z"/><path d="m261.27 121.09h-3.77a1.33 1.33 0 0 0 .52.85 1.88 1.88 0 0 0 2.34-.22l.61.7a2 2 0 0 1 -.82.58 3.06 3.06 0 0 1 -1.12.2 3 3 0 0 1 -1.4-.31 2.32 2.32 0 0 1 -.93-.88 2.49 2.49 0 0 1 -.33-1.28 2.54 2.54 0 0 1 .32-1.26 2.28 2.28 0 0 1 .89-.88 2.58 2.58 0 0 1 1.28-.31 2.44 2.44 0 0 1 1.25.31 2.21 2.21 0 0 1 .87.87 2.63 2.63 0 0 1 .31 1.3c0 .08-.01.24-.02.33zm-3.27-1.59a1.35 1.35 0 0 0 -.46.85h2.73a1.3 1.3 0 0 0 -1.36-1.17 1.3 1.3 0 0 0 -.91.32z"/><path d="m262.71 123.05a2.73 2.73 0 0 1 -.89-.39l.43-.85a3.3 3.3 0 0 0 1.68.47c.67 0 1-.17 1-.53a.35.35 0 0 0 -.25-.35 4.14 4.14 0 0 0 -.83-.19 6.45 6.45 0 0 1 -1-.21 1.36 1.36 0 0 1 -.65-.41 1.14 1.14 0 0 1 -.28-.81 1.25 1.25 0 0 1 .58-1.09 2.53 2.53 0 0 1 1.54-.41 4.17 4.17 0 0 1 1 .11 2.81 2.81 0 0 1 .81.3l-.43.86a2.68 2.68 0 0 0 -1.38-.36 1.64 1.64 0 0 0 -.75.14.45.45 0 0 0 -.26.4.39.39 0 0 0 .28.38 4.93 4.93 0 0 0 .85.21 6.12 6.12 0 0 1 .94.21 1.56 1.56 0 0 1 .64.39 1.15 1.15 0 0 1 .26.8 1.26 1.26 0 0 1 -.58 1.08 2.77 2.77 0 0 1 -1.6.4 4.35 4.35 0 0 1 -1.11-.15z"/></g><path d="m169.82 168.26-1.11-2a2.1 2.1 0 0 0 -1.84-1.09h-16.64a2.1 2.1 0 0 0 -2.1 2.1v31.8a2.19 2.19 0 0 0 2.19 2.19h37.8a2.19 2.19 0 0 0 2.19-2.19v-27.77a2.1 2.1 0 0 0 -2.1-2.1h-16.79a1.82 1.82 0 0 1 -1.6-.94z" fill="#40ff7d"/><path d="m169.82 168.26-1.11-2a2.1 2.1 0 0 0 -1.84-1.09h-16.64a2.1 2.1 0 0 0 -2.1 2.1v31.8a2.19 2.19 0 0 0 2.19 2.19h37.8a2.19 2.19 0 0 0 2.19-2.19v-27.77a2.1 2.1 0 0 0 -2.1-2.1h-16.79a1.82 1.82 0 0 1 -1.6-.94z" fill="#fff" opacity=".3"/><path d="m152.8 170.47h32.25v24.11h-32.25z" fill="#263238"/><path d="m152.8 170.47h32.25v24.11h-32.25z" fill="#fff" opacity=".8"/><path d="m150.47 172.89h36.91v27.6h-36.91z" fill="#263238"/><path d="m150.47 172.89h36.91v27.6h-36.91z" fill="#fff" opacity=".9"/><path d="m194 173.58h-22.11a3.26 3.26 0 0 0 -2.45.94l-1.44 1.74a2.64 2.64 0 0 1 -2.05.82h-21.6c-1.5 0-2.5.81-2.24 1.81 2.11 8.19 3.17 12.28 5.28 20.46a2.8 2.8 0 0 0 2.65 1.89h37.48a2.8 2.8 0 0 0 2.65-1.89l6.18-23.95c.25-1-.79-1.82-2.35-1.82z" fill="#40ff7d"/><path d="m194 173.58h-22.11a3.26 3.26 0 0 0 -2.45.94l-1.44 1.74a2.64 2.64 0 0 1 -2.05.82h-21.6c-1.5 0-2.5.81-2.24 1.81 2.11 8.19 3.17 12.28 5.28 20.46a2.8 2.8 0 0 0 2.65 1.89h37.48a2.8 2.8 0 0 0 2.65-1.89l6.18-23.95c.25-1-.79-1.82-2.35-1.82z" fill="#fff" opacity=".6"/><path d="m149 213.22a2.52 2.52 0 1 1 0-5h40.33a2.52 2.52 0 1 1 0 5z" fill="#263238"/><path d="m149 213.22a2.52 2.52 0 1 1 0-5h40.33a2.52 2.52 0 1 1 0 5z" fill="#fff" opacity=".6"/><path d="m245 168.26-1.11-2a2.11 2.11 0 0 0 -1.84-1.09h-16.6a2.1 2.1 0 0 0 -2.1 2.1v31.8a2.18 2.18 0 0 0 2.18 2.19h37.81a2.18 2.18 0 0 0 2.18-2.19v-27.77a2.1 2.1 0 0 0 -2.1-2.1h-16.79a1.82 1.82 0 0 1 -1.63-.94z" fill="#40ff7d"/><path d="m245 168.26-1.11-2a2.11 2.11 0 0 0 -1.84-1.09h-16.6a2.1 2.1 0 0 0 -2.1 2.1v31.8a2.18 2.18 0 0 0 2.18 2.19h37.81a2.18 2.18 0 0 0 2.18-2.19v-27.77a2.1 2.1 0 0 0 -2.1-2.1h-16.79a1.82 1.82 0 0 1 -1.63-.94z" fill="#fff" opacity=".3"/><path d="m228.02 170.47h32.25v24.11h-32.25z" fill="#263238"/><path d="m228.02 170.47h32.25v24.11h-32.25z" fill="#fff" opacity=".8"/><path d="m225.69 172.89h36.91v27.6h-36.91z" fill="#263238"/><path d="m225.69 172.89h36.91v27.6h-36.91z" fill="#fff" opacity=".9"/><path d="m269.23 173.58h-22.12a3.28 3.28 0 0 0 -2.46.94l-1.45 1.74a2.64 2.64 0 0 1 -2 .82h-21.65c-1.49 0-2.49.81-2.24 1.81 2.12 8.19 3.17 12.28 5.28 20.46a2.81 2.81 0 0 0 2.65 1.89h37.49a2.81 2.81 0 0 0 2.65-1.89l6.18-23.95c.25-1-.79-1.82-2.33-1.82z" fill="#40ff7d"/><path d="m269.23 173.58h-22.12a3.28 3.28 0 0 0 -2.46.94l-1.45 1.74a2.64 2.64 0 0 1 -2 .82h-21.65c-1.49 0-2.49.81-2.24 1.81 2.12 8.19 3.17 12.28 5.28 20.46a2.81 2.81 0 0 0 2.65 1.89h37.49a2.81 2.81 0 0 0 2.65-1.89l6.18-23.95c.25-1-.79-1.82-2.33-1.82z" fill="#fff" opacity=".6"/><path d="m224.27 213.22a2.52 2.52 0 0 1 0-5h40.33a2.52 2.52 0 1 1 0 5z" fill="#263238"/><path d="m224.27 213.22a2.52 2.52 0 0 1 0-5h40.33a2.52 2.52 0 1 1 0 5z" fill="#fff" opacity=".6"/><path d="m169.82 248.54-1.11-2a2.08 2.08 0 0 0 -1.84-1.09h-16.64a2.1 2.1 0 0 0 -2.1 2.1v31.8a2.18 2.18 0 0 0 2.19 2.18h37.8a2.18 2.18 0 0 0 2.19-2.18v-27.76a2.11 2.11 0 0 0 -2.1-2.11h-16.79a1.82 1.82 0 0 1 -1.6-.94z" fill="#40ff7d"/><path d="m169.82 248.54-1.11-2a2.08 2.08 0 0 0 -1.84-1.09h-16.64a2.1 2.1 0 0 0 -2.1 2.1v31.8a2.18 2.18 0 0 0 2.19 2.18h37.8a2.18 2.18 0 0 0 2.19-2.18v-27.76a2.11 2.11 0 0 0 -2.1-2.11h-16.79a1.82 1.82 0 0 1 -1.6-.94z" fill="#fff" opacity=".3"/><path d="m152.8 250.76h32.25v24.11h-32.25z" fill="#263238"/><path d="m152.8 250.76h32.25v24.11h-32.25z" fill="#fff" opacity=".8"/><path d="m150.47 253.18h36.91v27.6h-36.91z" fill="#263238"/><path d="m150.47 253.18h36.91v27.6h-36.91z" fill="#fff" opacity=".9"/><path d="m194 253.87h-22.11a3.26 3.26 0 0 0 -2.45.94c-.59.7-.88 1-1.45 1.74a2.67 2.67 0 0 1 -2.05.81h-21.6c-1.5 0-2.5.82-2.24 1.82 2.11 8.18 3.17 12.27 5.28 20.46a2.8 2.8 0 0 0 2.65 1.88h37.48a2.8 2.8 0 0 0 2.65-1.88l6.18-24c.26-.96-.78-1.77-2.34-1.77z" fill="#40ff7d"/><path d="m194 253.87h-22.11a3.26 3.26 0 0 0 -2.45.94c-.59.7-.88 1-1.45 1.74a2.67 2.67 0 0 1 -2.05.81h-21.6c-1.5 0-2.5.82-2.24 1.82 2.11 8.18 3.17 12.27 5.28 20.46a2.8 2.8 0 0 0 2.65 1.88h37.48a2.8 2.8 0 0 0 2.65-1.88l6.18-24c.26-.96-.78-1.77-2.34-1.77z" fill="#fff" opacity=".6"/><path d="m149 294.51a2.52 2.52 0 0 1 0-5h40.33a2.52 2.52 0 1 1 0 5z" fill="#263238"/><path d="m149 294.51a2.52 2.52 0 0 1 0-5h40.33a2.52 2.52 0 1 1 0 5z" fill="#fff" opacity=".6"/><path d="m245 248.54-1.11-2a2.09 2.09 0 0 0 -1.84-1.09h-16.6a2.1 2.1 0 0 0 -2.1 2.1v31.8a2.17 2.17 0 0 0 2.18 2.18h37.81a2.17 2.17 0 0 0 2.18-2.18v-27.76a2.11 2.11 0 0 0 -2.1-2.11h-16.79a1.82 1.82 0 0 1 -1.63-.94z" fill="#40ff7d"/><path d="m245 248.54-1.11-2a2.09 2.09 0 0 0 -1.84-1.09h-16.6a2.1 2.1 0 0 0 -2.1 2.1v31.8a2.17 2.17 0 0 0 2.18 2.18h37.81a2.17 2.17 0 0 0 2.18-2.18v-27.76a2.11 2.11 0 0 0 -2.1-2.11h-16.79a1.82 1.82 0 0 1 -1.63-.94z" fill="#fff" opacity=".3"/><path d="m228.02 250.76h32.25v24.11h-32.25z" fill="#263238"/><path d="m228.02 250.76h32.25v24.11h-32.25z" fill="#fff" opacity=".8"/><path d="m225.69 253.18h36.91v27.6h-36.91z" fill="#263238"/><path d="m225.69 253.18h36.91v27.6h-36.91z" fill="#fff" opacity=".9"/><path d="m269.23 253.87h-22.12a3.28 3.28 0 0 0 -2.46.94c-.59.7-.88 1-1.45 1.74a2.66 2.66 0 0 1 -2 .81h-21.65c-1.49 0-2.49.82-2.24 1.82 2.12 8.18 3.17 12.27 5.28 20.46a2.81 2.81 0 0 0 2.65 1.88h37.49a2.81 2.81 0 0 0 2.65-1.88l6.18-24c.25-.96-.79-1.77-2.33-1.77z" fill="#40ff7d"/><path d="m269.23 253.87h-22.12a3.28 3.28 0 0 0 -2.46.94c-.59.7-.88 1-1.45 1.74a2.66 2.66 0 0 1 -2 .81h-21.65c-1.49 0-2.49.82-2.24 1.82 2.12 8.18 3.17 12.27 5.28 20.46a2.81 2.81 0 0 0 2.65 1.88h37.49a2.81 2.81 0 0 0 2.65-1.88l6.18-24c.25-.96-.79-1.77-2.33-1.77z" fill="#fff" opacity=".6"/><path d="m224.27 294.51a2.52 2.52 0 0 1 0-5h40.33a2.52 2.52 0 0 1 0 5z" fill="#263238"/><path d="m224.27 294.51a2.52 2.52 0 0 1 0-5h40.33a2.52 2.52 0 0 1 0 5z" fill="#fff" opacity=".6"/><path d="m318.56 248.54-1.11-2a2.1 2.1 0 0 0 -1.85-1.09h-16.6a2.1 2.1 0 0 0 -2.1 2.1v31.8a2.17 2.17 0 0 0 2.18 2.18h37.81a2.18 2.18 0 0 0 2.18-2.18v-27.76a2.11 2.11 0 0 0 -2.1-2.11h-16.82a1.82 1.82 0 0 1 -1.59-.94z" fill="#40ff7d"/><path d="m318.56 248.54-1.11-2a2.1 2.1 0 0 0 -1.85-1.09h-16.6a2.1 2.1 0 0 0 -2.1 2.1v31.8a2.17 2.17 0 0 0 2.18 2.18h37.81a2.18 2.18 0 0 0 2.18-2.18v-27.76a2.11 2.11 0 0 0 -2.1-2.11h-16.82a1.82 1.82 0 0 1 -1.59-.94z" fill="#fff" opacity=".3"/><path d="m301.54 250.76h32.25v24.11h-32.25z" fill="#263238"/><path d="m301.54 250.76h32.25v24.11h-32.25z" fill="#fff" opacity=".8"/><path d="m299.21 253.18h36.91v27.6h-36.91z" fill="#263238"/><path d="m299.21 253.18h36.91v27.6h-36.91z" fill="#fff" opacity=".9"/><path d="m342.75 253.87h-22.12a3.28 3.28 0 0 0 -2.46.94c-.59.7-.88 1-1.45 1.74a2.66 2.66 0 0 1 -2 .81h-21.65c-1.49 0-2.49.82-2.24 1.82 2.12 8.18 3.17 12.27 5.28 20.46a2.81 2.81 0 0 0 2.65 1.88h37.48a2.81 2.81 0 0 0 2.66-1.88q3.08-12 6.17-24c.26-.96-.78-1.77-2.32-1.77z" fill="#40ff7d"/><path d="m342.75 253.87h-22.12a3.28 3.28 0 0 0 -2.46.94c-.59.7-.88 1-1.45 1.74a2.66 2.66 0 0 1 -2 .81h-21.65c-1.49 0-2.49.82-2.24 1.82 2.12 8.18 3.17 12.27 5.28 20.46a2.81 2.81 0 0 0 2.65 1.88h37.48a2.81 2.81 0 0 0 2.66-1.88q3.08-12 6.17-24c.26-.96-.78-1.77-2.32-1.77z" fill="#fff" opacity=".6"/><path d="m297.79 294.51a2.52 2.52 0 0 1 0-5h40.33a2.52 2.52 0 0 1 0 5z" fill="#263238"/><path d="m297.79 294.51a2.52 2.52 0 0 1 0-5h40.33a2.52 2.52 0 0 1 0 5z" fill="#fff" opacity=".6"/><path d="m297.27 213.22a2.52 2.52 0 1 1 0-5h40.33a2.52 2.52 0 1 1 0 5z" fill="#263238"/><path d="m297.27 213.22a2.52 2.52 0 1 1 0-5h40.33a2.52 2.52 0 1 1 0 5z" fill="#fff" opacity=".6"/><path d="m295.89 202.13 8.6 25.16a3.11 3.11 0 0 0 2.79 1.9h16.92a1.47 1.47 0 0 0 1.54-1l.5-1.83a1.27 1.27 0 0 1 1.33-.86h17.07a1.39 1.39 0 0 0 1.49-1.9l-7.34-21.49-.11-4.2v-32.33a2.13 2.13 0 0 0 -2.13-2.13h-16.92a2.12 2.12 0 0 0 -1.87 1.1l-1.13 2.06a1.85 1.85 0 0 1 -1.62.95h-17.08a2.14 2.14 0 0 0 -2.14 2.14v28.23z" fill="#40ff7d"/><path d="m295.89 202.13 8.6 25.16a3.11 3.11 0 0 0 2.79 1.9h16.92a1.47 1.47 0 0 0 1.54-1l.5-1.83a1.27 1.27 0 0 1 1.33-.86h17.07a1.39 1.39 0 0 0 1.49-1.9l-7.34-21.49-.11-4.2v-32.33a2.13 2.13 0 0 0 -2.13-2.13h-16.92a2.12 2.12 0 0 0 -1.87 1.1l-1.13 2.06a1.85 1.85 0 0 1 -1.62.95h-17.08a2.14 2.14 0 0 0 -2.14 2.14v28.23z" fill="#fff" opacity=".6"/><path d="m295.89 202.13 8.6 25.16a3.11 3.11 0 0 0 2.79 1.9h16.92a1.47 1.47 0 0 0 1.54-1l.5-1.83a1.27 1.27 0 0 1 1.33-.86h17.07a1.39 1.39 0 0 0 1.49-1.9l-7.34-21.49z" fill="#40ff7d"/><path d="m295.89 202.13 8.6 25.16a3.11 3.11 0 0 0 2.79 1.9h16.92a1.47 1.47 0 0 0 1.54-1l.5-1.83a1.27 1.27 0 0 1 1.33-.86h17.07a1.39 1.39 0 0 0 1.49-1.9l-7.34-21.49z" fill="#fff" opacity=".3"/><path d="m300.03 202.13h34.81l6.35 17.89h-34.81z" opacity=".1"/><path d="m300.03 173.91h34.81v28.21h-34.81z" fill="#263238" transform="matrix(-1 0 0 -1 634.87 376.04)"/><path d="m300.03 173.91h34.81v28.21h-34.81z" fill="#fff" opacity=".8" transform="matrix(-1 0 0 -1 634.87 376.04)"/><path d="m300.03 202.13h34.81l7.06-20.33h-34.82z" fill="#263238"/><path d="m300.03 202.13h34.81l7.06-20.33h-34.82z" fill="#fff" opacity=".9"/><path d="m300.03 202.13h34.81l7.06 15.07h-34.82z" fill="#263238"/><path d="m300.03 202.13h34.81l7.06 15.07h-34.82z" fill="#fff" opacity=".9"/><path d="m300.03 202.13h34.81l11.39-7.75h-34.82z" fill="#263238"/><path d="m300.03 202.13h34.81l11.39-7.75h-34.82z" fill="#fff" opacity=".8"/><path d="m108.3 378.25c.86-13.57 6.81-27.3 16.38-36.62 2.39-2.32 7.41-6.92 3.34-9.35-4.65-2.78-13.57 10.2-14.82 12.6 2.64-10.34 10.64-17.83 19.32-22.12 4.29-2.12 8.38-4.13 3.81-7.28s-14.46 4.49-16.75 7.77c5.42-7.57 12.27-15.15 19.29-19.68 7.75-5 4.25-13.34-3.74-6.89-4.95 4-13.09 14-13.09 14s12.79-25.69 8.93-28c-5-3-13.76 32-16.18 38.9.65-5.72 1.26-19.56-3-20.16-3.89-.54-2.94 33.92-3.84 40-.57 2.65-.83 4-1.28 6.67-.42-4.59-3-16.69-6.86-15.29-3.28 1.18-1.25 10.24-.4 14.54 2.06 10.41 4.14 20.48 4.16 31.16z" fill="#40ff7d"/><path d="m112.45 308.09c.58 7.48 1.1 15.08.38 22.6a125.17 125.17 0 0 1 5.33-12.81.75.75 0 0 1 .1-.2c.6-1.25 1.22-2.49 1.87-3.72.26-.49.9-.27.81.19 4.74-6 10.47-11.5 17.29-15 .5-.26.84.5.36.77-7.92 4.48-13.81 10.79-19.64 18.26a112.15 112.15 0 0 0 -6.24 15.45 33 33 0 0 1 18.64-14c.52-.16.81.64.29.81-10.55 3.33-18 10.71-21 20.38a.59.59 0 0 1 -.1.21c-1.47 6.18-2.59 12.18-3.45 18.48 3-8.87 9.39-16.7 16.75-22.2.44-.33.84.43.4.76a48.49 48.49 0 0 0 -17.52 25.53s0 0 0 .05q-.48 6-.42 12a.42.42 0 1 1 -.83 0 148.16 148.16 0 0 1 5.6-39.65c1.94-9.09 1.24-18.58.51-27.73-.05-.63.82-.8.87-.18z" fill="#fff" opacity=".4"/><path d="m107.3 378.24c-1-16.1-8.07-32.39-19.43-43.44-2.83-2.75-8.78-8.21-4-11.09 5.51-3.29 16.1 12.1 17.57 14.94-3.12-12.26-12.62-21.14-22.91-26.23-5.09-2.52-9.94-4.89-4.52-8.63s17.16 5.33 19.86 9.21c-6.43-9-14.55-18-22.87-23.34-9.19-5.92-5-15.82 4.43-8.17 5.93 4.74 15.57 16.57 15.57 16.57s-15.16-30.46-10.58-33.26c5.88-3.6 16.31 38 19.18 46.13-.76-6.78-1.48-23.2 3.62-23.91 4.61-.64 3.48 40.22 4.55 47.44.68 3.15 1 4.73 1.51 7.91.51-5.44 3.54-19.79 8.15-18.13 3.88 1.4 1.48 12.14.47 17.24-2.45 12.34-4.92 24.29-4.93 36.95z" fill="#40ff7d"/><path d="m102.38 295c-.68 8.88-1.3 17.88-.45 26.8a147.49 147.49 0 0 0 -6.32-15.18.86.86 0 0 0 -.11-.24c-.72-1.48-1.45-2.95-2.21-4.4-.31-.59-1.08-.32-1 .22-5.62-7.15-12.41-13.64-20.5-17.82-.6-.31-1 .6-.43.92 9.39 5.31 16.37 12.8 23.3 21.66a135.2 135.2 0 0 1 7.4 18.32 39.12 39.12 0 0 0 -22.06-16.65c-.62-.19-1 .76-.35.95 12.52 3.95 21.3 12.71 24.91 24.18a1 1 0 0 0 .13.25c1.74 7.33 3.06 14.45 4.09 21.91-3.54-10.51-11.14-19.81-19.86-26.32-.53-.4-1 .51-.48.9a57.55 57.55 0 0 1 20.78 30.28s0 0 0 .05q.57 7.08.5 14.22a.5.5 0 1 0 1 0 175.44 175.44 0 0 0 -6.72-46.93c-2.3-10.77-1.47-22-.6-32.89.07-.74-.96-.95-1.02-.23z" fill="#fff" opacity=".2"/><path d="m107.3 378.24c-1-16.1-8.07-32.39-19.43-43.44-2.83-2.75-8.78-8.21-4-11.09 5.51-3.29 16.1 12.1 17.57 14.94-3.12-12.26-12.62-21.14-22.91-26.23-5.09-2.52-9.94-4.89-4.52-8.63s17.16 5.33 19.86 9.21c-6.43-9-14.55-18-22.87-23.34-9.19-5.92-5-15.82 4.43-8.17 5.93 4.74 15.57 16.57 15.57 16.57s-15.16-30.46-10.58-33.26c5.88-3.6 16.31 38 19.18 46.13-.76-6.78-1.48-23.2 3.62-23.91 4.61-.64 3.48 40.22 4.55 47.44.68 3.15 1 4.73 1.51 7.91.51-5.44 3.54-19.79 8.15-18.13 3.88 1.4 1.48 12.14.47 17.24-2.45 12.34-4.92 24.29-4.93 36.95z" fill="#40ff7d"/><path d="m107.3 378.24c-1-16.1-8.07-32.39-19.43-43.44-2.83-2.75-8.78-8.21-4-11.09 5.51-3.29 16.1 12.1 17.57 14.94-3.12-12.26-12.62-21.14-22.91-26.23-5.09-2.52-9.94-4.89-4.52-8.63s17.16 5.33 19.86 9.21c-6.43-9-14.55-18-22.87-23.34-9.19-5.92-5-15.82 4.43-8.17 5.93 4.74 15.57 16.57 15.57 16.57s-15.16-30.46-10.58-33.26c5.88-3.6 16.31 38 19.18 46.13-.76-6.78-1.48-23.2 3.62-23.91 4.61-.64 3.48 40.22 4.55 47.44.68 3.15 1 4.73 1.51 7.91.51-5.44 3.54-19.79 8.15-18.13 3.88 1.4 1.48 12.14.47 17.24-2.45 12.34-4.92 24.29-4.93 36.95z" fill="#fff" opacity=".2"/><path d="m102.38 295c-.68 8.88-1.3 17.88-.45 26.8a147.49 147.49 0 0 0 -6.32-15.18.86.86 0 0 0 -.11-.24c-.72-1.48-1.45-2.95-2.21-4.4-.31-.59-1.08-.32-1 .22-5.62-7.15-12.41-13.64-20.5-17.82-.6-.31-1 .6-.43.92 9.39 5.31 16.37 12.8 23.3 21.66a135.2 135.2 0 0 1 7.4 18.32 39.12 39.12 0 0 0 -22.06-16.65c-.62-.19-1 .76-.35.95 12.52 3.95 21.3 12.71 24.91 24.18a1 1 0 0 0 .13.25c1.74 7.33 3.06 14.45 4.09 21.91-3.54-10.51-11.14-19.81-19.86-26.32-.53-.4-1 .51-.48.9a57.55 57.55 0 0 1 20.78 30.28s0 0 0 .05q.57 7.08.5 14.22a.5.5 0 1 0 1 0 175.44 175.44 0 0 0 -6.72-46.93c-2.3-10.77-1.47-22-.6-32.89.07-.74-.96-.95-1.02-.23z" fill="#fff" opacity=".5"/><path d="m123.83 376.05h-31.28a3.67 3.67 0 0 0 -3.67 3.67v1.62a3.67 3.67 0 0 0 3.67 3.66l3.6 26h24.08l3.6-26a3.67 3.67 0 0 0 3.68-3.67v-1.62a3.67 3.67 0 0 0 -3.68-3.66z" fill="#40ff7d"/><path d="m123.83 376.05h-31.28a3.67 3.67 0 0 0 -3.67 3.67v1.62a3.67 3.67 0 0 0 3.67 3.66l3.6 26h24.08l3.6-26a3.67 3.67 0 0 0 3.68-3.67v-1.62a3.67 3.67 0 0 0 -3.68-3.66z" opacity=".2"/><path d="m123.09 390.37.73-5.28h-31.26l.73 5.28z" opacity=".2"/><path d="m388.8 196.1s17.91 15.4 17.91 24.53c0 8.39-17.79 17.38-25.61 18.54a64.09 64.09 0 0 1 -7.33 0 4 4 0 0 1 -3.77-2.66l-.09-.26a3.93 3.93 0 0 1 .93-4.14 6.17 6.17 0 0 1 3.17-1.77c2.82-.44 6.79 3.53 6.79 3.53s17.37-10.45 17.37-12.36-7.94-8.17-10.3-11.63c-1.99-2.88-4.03-7.11.93-13.78z" fill="#b97964"/><path d="m389.25 195.24c1.74 1 5.65 4 12 12.4 0 0-.23 4.56-8.35 8.81 0 0-8.65-6.65-8.57-13.06a10.9 10.9 0 0 1 3-7.93 1.63 1.63 0 0 1 1.92-.22z" fill="#40ff7d"/><path d="m387.42 210.94a34.06 34.06 0 0 0 5.45 5.51l.64-.35c.83-9.8-2.26-16-2.26-16l-3.06 4.18z" opacity=".2"/><path d="m381.43 239.11a43.84 43.84 0 0 0 12.14-4.6c-1.64-1.2-2.13-5.37-2.26-7.31-4.46 3-9.56 6.1-10.38 6.6z" fill="#606060" opacity=".2"/><path d="m391.72 216.18s7.22-3.91 9.5-9.78l1.35 2.28a18.78 18.78 0 0 1 -9.45 8.93z" fill="#40ff7d"/><path d="m391.72 216.18s7.22-3.91 9.5-9.78l1.35 2.28a18.78 18.78 0 0 1 -9.45 8.93z" fill="#fff" opacity=".5"/><path d="m383.13 209.49-1-1.29a1.5 1.5 0 0 0 -1.42-.56l-11.71 1.85a1.5 1.5 0 0 0 -1.25 1.72l3.55 22.38a1.56 1.56 0 0 0 1.78 1.3l26.61-4.22a1.56 1.56 0 0 0 1.3-1.78l-3.1-19.54a1.5 1.5 0 0 0 -1.71-1.24l-11.82 1.89a1.3 1.3 0 0 1 -1.23-.51z" fill="#40ff7d"/><path d="m383.13 209.49-1-1.29a1.5 1.5 0 0 0 -1.42-.56l-11.71 1.85a1.5 1.5 0 0 0 -1.25 1.72l3.55 22.38a1.56 1.56 0 0 0 1.78 1.3l26.61-4.22a1.56 1.56 0 0 0 1.3-1.78l-3.1-19.54a1.5 1.5 0 0 0 -1.71-1.24l-11.82 1.89a1.3 1.3 0 0 1 -1.23-.51z" fill="#fff" opacity=".4"/><path d="m396.18 208.11-11.71 1.89a1.53 1.53 0 0 0 -1.18 1l-.55 1.55a1.33 1.33 0 0 1 -1 .84l-11.82 1.87a1.5 1.5 0 0 0 -1.25 1.71l2.65 16.69a1.56 1.56 0 0 0 1.78 1.3l26.61-4.22a1.56 1.56 0 0 0 1.3-1.78l-3.1-19.54a1.5 1.5 0 0 0 -1.73-1.31z" fill="#40ff7d"/><path d="m396.18 208.11-11.71 1.89a1.53 1.53 0 0 0 -1.18 1l-.55 1.55a1.33 1.33 0 0 1 -1 .84l-11.82 1.87a1.5 1.5 0 0 0 -1.25 1.71l2.65 16.69a1.56 1.56 0 0 0 1.78 1.3l26.61-4.22a1.56 1.56 0 0 0 1.3-1.78l-3.1-19.54a1.5 1.5 0 0 0 -1.73-1.31z" fill="#fff" opacity=".7"/><path d="m410.6 391.37 3.61 12.6 5.89-1.16-1.54-13.45z" fill="#b97964"/><path d="m413.7 402 6.95-1.26a.6.6 0 0 1 .63.34l2.28 5.43a.94.94 0 0 1 -.5 1.24.6.6 0 0 1 -.19.06c-2.51.41-4.77.68-7.89 1.25-3.68.67-2.66.94-7 1.79-2.6.51-3.62-2.37-2.54-2.72 5-1.56 5.19-3.18 6.82-5.35a2.32 2.32 0 0 1 1.44-.78z" fill="#263238"/><path d="m359.26 388.92v16.7h6.26l3.23-16.31z" fill="#b97964"/><path d="m359.15 404.55 7.05.25a.58.58 0 0 1 .54.47l1.07 5.78a1 1 0 0 1 -.75 1.11.66.66 0 0 1 -.2 0c-2.54-.13-4.8-.35-8-.46-3.74-.13-2.81.35-7.2.25-2.65-.06-3-3.08-1.9-3.19 5.16-.46 5.75-2 7.8-3.76a2.26 2.26 0 0 1 1.59-.45z" fill="#263238"/><path d="m378.27 249.47 11.69-3.3s8.29 5.31 9.51 29.47c.5 9.71 3.27 17.21 2.88 35.61a33.19 33.19 0 0 0 3.46 15.51 80.64 80.64 0 0 1 6.46 18.32c3.5 15.66 7.83 51.52 7.83 51.52l-8.45 1.4s-7.83-26.58-18.13-53.16-17.52-67.14-17.52-67.14l-2.71-28.23z" fill="#263238"/><path d="m383.11 278.94-2.37.51-2.68 2.68-.69 2.74c1.07 5.38 2.74 13.31 4.87 22.17 4.08-22.55.87-28.1.87-28.1z" opacity=".6"/><path d="m356.63 248.44 2.17 151.77h8.34s8.66-37.4 8.66-52.24c0-8.78-.58-18.07-1.05-24.19a34 34 0 0 1 1.67-13.42c2.75-8.17 7.06-22.24 7.62-31.42 0 0 10.92-.42 3.09-30.5z" fill="#263238"/><path d="m363.09 171.65-3.85 3.73a4 4 0 0 0 3.42 1.18z" fill="#a24e3f"/><path d="m384.13 172.41c-1.55 7.61-2 10.87-6.47 14.27-6.49 3.18-15.69 1.54-16.44-6.38-.68-7.13 2-18.35 9.92-20.39a10.59 10.59 0 0 1 13 12.5z" fill="#b97964"/><path d="m364.64 166.8a.35.35 0 0 1 -.24-.17 2.37 2.37 0 0 0 -1.73-1.34.3.3 0 0 1 -.27-.33.3.3 0 0 1 .34-.27 3 3 0 0 1 2.21 1.66.31.31 0 0 1 -.13.42z" fill="#263238"/><path d="m366.2 184.45a8.27 8.27 0 0 1 -4.18-1.18c1.38 2.93 4.3 4.5 7.58 4.85l-.11-1.61s.29-1.95-3.29-2.06z" fill="#606060" opacity=".2"/><path d="m369 193.61.68-9.77s3.95-1.45 6.32 0c0 0 1.14 7.31 3.3 9.06z" fill="#b97964"/><path d="m361.37 169.93c-.14.56 0 1.1.41 1.19s.81-.31.94-.86 0-1.1-.41-1.19-.79.29-.94.86z" fill="#263238"/><path d="m362.62 169.06a2.45 2.45 0 0 1 -1.69-1.32 2 2 0 0 0 1.47 2z" fill="#263238"/><path d="m363.85 171.67a6 6 0 0 0 -.08 4.58c.79 1.95 2.86 1.66 4 .06 1.07-1.45 1.93-4.21.46-5.66a2.7 2.7 0 0 0 -4.38 1.02z" fill="#b97964"/><path d="m387.28 166.8s4.13-3.93.83-6.82.46 3.12-.83 6.82z" fill="#263238"/><path d="m370.23 161.49s-4.38-3.66-5.87-.87 2.52-.37 5.87.87z" fill="#263238"/><path d="m369.77 169.94-6.47-2.08.05-.14a1.07 1.07 0 0 0 -.72-1.32l-1.18-.34a1 1 0 0 0 -1.31.71l-1.24 4.23a1.4 1.4 0 0 0 .1 1 1.35 1.35 0 0 0 .82.66l.55.17a1.74 1.74 0 0 0 .39 0 1.39 1.39 0 0 0 1.33-1l1-3.47 6.45 2.07zm-8.83-3.26a.5.5 0 0 1 .34 0l1.18.35a.43.43 0 0 1 .29.54v.13l-2-.64v-.08a.48.48 0 0 1 .19-.3zm.58 5.06a.77.77 0 0 1 -1 .52l-.54-.16a.77.77 0 0 1 -.46-.37.74.74 0 0 1 -.06-.58l1-3.53 2 .65z" fill="#263238"/><path d="m365.6 196.35s1-3.86 7.69-5.25a8.25 8.25 0 0 1 9.31 3.9z" fill="#40ff7d"/><path d="m365.6 196.35s1-3.86 7.69-5.25a8.25 8.25 0 0 1 9.31 3.9z" fill="#fff" opacity=".5"/><path d="m355.86 249.44s27.12 3.35 35.78-3.27a74 74 0 0 1 -1.64-21.17c.83-11.28 4.31-22.41.6-28.51s-31.15-1.55-36.56 4 1.82 27.24 1.82 48.95z" fill="#40ff7d"/><path d="m360.11 205.32-2.24 6.68-5 6.29c.58 4.63 1.37 9.84 2 15.34a30.22 30.22 0 0 0 6.05-9.93c4.9-13.35 1-20.79 1-20.79z" opacity=".2"/><path d="m365.6 175.28s-8 19.88 5.56 19.73 16.84-3.45 13.21-6.13 8.29-11.54 3.82-22.66c0 0-1.58-8.86-10.64-8.76a8.87 8.87 0 0 0 -5.68-3.41 4.18 4.18 0 0 0 -4.06 6.35l1.87 3s-7.07 2.3-4.08 11.88z" fill="#263238"/><path d="m358.84 199.45s-6.66 1.47-8 9.84-2.14 14.71-4.58 15.56-14-8.75-14-8.75l.38-5.62a3.11 3.11 0 0 0 -1.75-3l-.87-.43a3.14 3.14 0 0 0 -3.36.4l-.66.55a3.15 3.15 0 0 0 -1.09 3c.45 2.25 1.38 5.87 3 7 0 0 16.22 18.65 21.05 16.71s8.49-13.67 10.47-18.54c1.57-3.84 3.57-8.12-.59-16.72z" fill="#b97964"/><path d="m359.26 198.36c-1.81-1.16-9.35.24-11.13 17.54 0 0 5.95 5 11.59 4.33 0 0 7.34-16.84-.46-21.87z" fill="#40ff7d"/><path d="m347.75 214.24s5.83 5 13.13 4.73l-.84 1.95s-6.19 1.36-12.56-4.74z" fill="#40ff7d"/><path d="m347.75 214.24s5.83 5 13.13 4.73l-.84 1.95s-6.19 1.36-12.56-4.74z" fill="#fff" opacity=".5"/><path d="m410.2 396.04.79 3.11 9.9-1.89-.34-3.08z" fill="#40ff7d"/><path d="m357.77 398.22.12 3.09h10.24l.62-3.09z" fill="#40ff7d"/></svg>